<?xml version="1.0" encoding="utf-8"?>
<!-- Generator: Adobe Illustrator 18.0.0, SVG Export Plug-In . SVG Version: 6.00 Build 0)  -->
<!DOCTYPE svg PUBLIC "-//W3C//DTD SVG 1.1//EN" "http://www.w3.org/Graphics/SVG/1.1/DTD/svg11.dtd">
<svg version="1.1" id="Layer_1" xmlns="http://www.w3.org/2000/svg" xmlns:xlink="http://www.w3.org/1999/xlink" x="0px" y="0px"
	 viewBox="0 0 64 64" enable-background="new 0 0 64 64" xml:space="preserve">
<g>
	<g>
		<path d="M48.4,64C48.4,64,48.4,64,48.4,64c-9.2,0-21.3-6.4-31.7-16.7C2.8,33.3-3.5,16.5,2,7.9c0.2-0.5,0.5-0.9,0.9-1.2L8,1.6
			C9.1,0.6,10.5,0,12.1,0c1.8,0,3.5,0.8,4.9,2.1l9.1,9.1c2.6,2.6,2.8,6.6,0.4,8.9l-5.8,5.8c2.3,3.3,5,6.5,7.9,9.5
			c3,3,6.2,5.6,9.5,7.9l5.8-5.8c1.1-1.1,2.5-1.6,4.1-1.6c1.8,0,3.5,0.8,4.9,2.1l9.1,9.1c1.2,1.2,1.9,2.8,2.1,4.4
			c0.1,1.7-0.5,3.4-1.6,4.5l-5.1,5.1c-0.3,0.3-0.7,0.6-1.2,0.9C54,63.3,51.4,64,48.4,64z M12.1,4c-0.4,0-0.9,0.1-1.2,0.5L5.7,9.6
			c0,0-0.1,0.1-0.1,0.2l-0.1,0.2C0.9,16.9,7.1,32,19.6,44.4C29,53.9,40.3,60,48.4,60h0c2.3,0,4.1-0.5,5.6-1.4l0.2-0.1
			c0.2-0.1,0.2-0.1,0.2-0.1l5.1-5.1c0.5-0.5,0.5-1.1,0.5-1.4c0-0.7-0.4-1.3-0.9-1.9L50,40.8c-0.6-0.6-1.3-0.9-2-0.9
			c-0.4,0-0.9,0.1-1.2,0.5l-5.9,5.9c-1.3,1.3-3.4,1.4-4.9,0.3c-3.5-2.4-6.9-5.3-10-8.4c-3.2-3.2-6-6.5-8.4-10
			c-1.1-1.6-1-3.7,0.3-4.9l5.9-5.9c0.8-0.8,0.6-2.3-0.4-3.3l-9.1-9.1C13.5,4.3,12.8,4,12.1,4z"/>
	</g>
</g>
</svg>
